<svg version="1.2" xmlns="http://www.w3.org/2000/svg" viewBox="0 0 400 218.18181818" width="400" height="219">
	<style>
		.s0 { fill: #ffffff } 
		.s1 { fill: #FF3B00 } 
	</style>
	<g>
		<path id="Shape 7" fill-rule="evenodd" class="s0" d="m296.16 107.14l-27.97-49.52-13.82-5.91-38.85-18.44-61.02 57.6 35.7 19.45 33.11-31.94-8.1-7.93-26.96 25.1-13.08-7.51 42.4-39.93 41.99 19.82 21.72 38.57 5.04 2.5 5.2 2.12z"/>
		<path id="Shape 6" fill-rule="evenodd" class="s0" d="m274.73 128.69l12.62-11.37 4.31 6.71 35.57-21.42-40.34-70.83-32.54 19.92 4.19 4.15 7.22 3.01 1.57-0.47 0.99-0.46 14.2-8.97 27.86 49.46-14.23 8.72-9.9-4.98-2.65 2.16-2.34 2.18-15.63 13.4z"/>
		<path id="Shape 5" fill-rule="evenodd" class="s0" d="m152.35 145.2l13.86-12.89 8.83-7.93 0.11-0.51 6.67-6.16 25 22.89 12.14 25.88-28.22 27.67-0.24-16.99 13.9-14.07-5.47-10.59-17.92 16.74-3.08 0.05-5.64-5.63-0.54-2.24 18.89-18.73-8.54-8.86-19.77 19.72-7.42-2.93-2.03-4.75z"/>
		<path id="Shape 4" fill-rule="evenodd" class="s0" d="m156.68 107.12l-31.24 30.88 65.28 56.08 12.18-11.87-11.95-3.52-0.46-1.52-47.06-39.5 14.14-13.56 8.64 8.21 6.6 0.96 3.1-3.54 0.03-2.65-0.78-3.2z"/>
		<path id="Shape 2" fill-rule="evenodd" class="s1" d="m123.41 31.92l32.18 19.85 34.76-15.97 11.78 10.33-8.34 8.08-5.76-3.95-38.32 17.43-21.23 39.23-0.54 0.61-5.54 2.06-8.03-1.23-0.01-0.78 27.97-50.05-14.9-8.77-1.42-1.06-2.42-12.75-0.23-2.88z"/>
		<path id="Shape 3" fill-rule="evenodd" class="s1" d="m222.98 78.6l-8.36 7.66 52.04 51.69-12.16 9.48-36.01-34.93-8.86 7.67 35.86 35.55-25.57 22.09-6.58-6.09-8.52 7.73 14.25 14.04 65.49-55.31z"/>
		<path id="Shape 1" fill-rule="evenodd" class="s1" d="m123.39 31.91l-40.62 70.93 35.87 21.88 3.96-7.22 13.36 10.92 8.26-8.01-15.74-13.49-14.11 0.65-15.37-9 28.47-49.8z"/>
	</g>
</svg>